<svg width="750" height="750" viewBox="0 0 750 750" fill="none" xmlns="http://www.w3.org/2000/svg">
<rect width="750" height="750" fill="#8200AD"/>
<path d="M325.919 372.54C393.362 372.54 448.036 318.022 448.036 250.77C448.036 183.518 393.362 129 325.919 129C258.476 129 203.802 183.518 203.802 250.77C203.802 318.022 258.476 372.54 325.919 372.54Z" fill="white"/>
<path d="M189 484.469C189 409.066 250.301 347.94 325.919 347.94C401.537 347.94 462.838 409.066 462.838 484.469V621H189V484.469Z" fill="white"/>
<path fill-rule="evenodd" clip-rule="evenodd" d="M590.348 221.002C567.522 204.121 535.293 208.888 518.364 231.65L424.216 358.235C456.437 378.892 478.256 412.895 483.374 450.971L601.027 292.782C617.956 270.02 613.176 237.883 590.348 221.002Z" fill="white"/>
</svg>
